<?xml version="1.0" standalone="no"?>
<!DOCTYPE svg PUBLIC "-//W3C//DTD SVG 20010904//EN"
 "http://www.w3.org/TR/2001/REC-SVG-20010904/DTD/svg10.dtd">
<svg version="1.0" xmlns="http://www.w3.org/2000/svg"
 width="538.000000pt" height="538.000000pt" viewBox="0 0 538.000000 538.000000"
 preserveAspectRatio="xMidYMid meet">
<metadata>
Created by potrace 1.14, written by Peter Selinger 2001-2017
</metadata>
<g transform="translate(0.000000,538.000000) scale(0.100000,-0.100000)"
fill="#000000" stroke="none">
<path d="M4839 5298 c-48 -46 -120 -114 -160 -152 -41 -38 -130 -122 -199
-186 -69 -65 -142 -133 -162 -152 -36 -34 -145 -246 -475 -928 -41 -85 -117
-241 -169 -346 -52 -106 -94 -199 -94 -208 0 -23 14 -21 177 25 80 22 153 42
162 44 9 2 28 8 44 14 15 6 38 13 50 15 12 3 63 17 112 31 50 14 97 27 105 29
8 2 50 14 92 26 l77 23 37 71 c20 39 49 94 64 121 15 28 85 163 155 300 70
138 132 256 138 263 5 6 6 12 2 12 -4 0 1 12 10 27 23 34 137 265 226 454 101
217 159 357 158 382 0 16 -34 49 -115 116 -63 51 -123 95 -132 97 -11 3 -48
-26 -103 -78z"/>
<path d="M1026 5281 c-22 -34 -97 -170 -181 -326 -30 -55 -38 -81 -38 -123 0
-28 3 -55 6 -59 4 -3 60 -5 125 -3 243 7 233 8 372 -58 159 -76 237 -112 380
-177 63 -29 151 -70 195 -90 87 -40 171 -79 250 -115 28 -12 81 -38 119 -56
50 -25 72 -31 81 -24 10 8 12 48 9 163 -7 245 0 222 -106 344 -51 60 -95 110
-98 113 -3 3 -27 32 -54 65 -28 33 -57 67 -65 76 -9 9 -34 38 -56 64 -82 100
-59 89 -305 135 -124 23 -234 44 -245 46 -11 3 -36 7 -55 10 -19 3 -42 7 -51
10 -32 9 -185 36 -222 39 -34 3 -40 -1 -61 -34z"/>
<path d="M3441 5116 c-18 -10 -50 -47 -96 -110 -11 -16 -26 -35 -34 -43 -42
-44 -101 -129 -101 -146 0 -54 56 -97 145 -111 55 -9 66 -23 37 -47 -49 -39
-91 -43 -307 -24 -27 2 -84 7 -125 11 -41 3 -95 8 -120 11 -48 4 -85 4 -111 0
-17 -3 -55 -32 -129 -101 -25 -22 -87 -79 -138 -125 l-92 -83 0 -57 c0 -31 4
-61 8 -67 6 -9 175 -94 187 -94 2 0 60 -27 130 -60 70 -33 128 -60 130 -60 5
0 256 -118 285 -134 14 -8 53 -54 88 -102 35 -49 69 -97 77 -106 7 -9 19 -27
26 -40 6 -13 15 -25 18 -28 4 -3 33 -43 66 -90 111 -161 134 -190 150 -184 8
3 51 81 96 173 44 91 85 173 90 181 5 8 13 24 18 35 8 20 81 168 315 648 64
131 116 245 116 253 0 7 -8 14 -17 15 -45 2 -179 17 -208 23 -11 3 -23 5 -26
5 -4 1 -20 13 -36 29 -50 45 -63 86 -78 240 -9 100 -61 172 -138 193 -46 12
-199 9 -226 -5z"/>
<path d="M806 4742 c-2 -1 -79 -5 -172 -7 -377 -11 -418 -14 -430 -30 -8 -11
-6 -36 7 -97 11 -46 21 -92 23 -103 2 -11 9 -40 15 -65 5 -25 13 -61 16 -80 3
-19 10 -53 15 -75 5 -22 16 -74 25 -115 9 -41 21 -87 27 -102 7 -18 81 -84
207 -185 108 -86 205 -165 216 -174 41 -37 131 -106 150 -117 11 -5 56 -13
100 -17 44 -4 82 -8 85 -10 3 -2 36 -6 74 -10 37 -3 82 -8 100 -11 17 -2 58
-6 91 -9 32 -3 66 -7 75 -9 8 -3 49 -8 90 -12 98 -8 128 -12 170 -18 19 -2 62
-8 95 -11 140 -15 223 -25 255 -30 14 -2 57 -6 95 -10 39 -3 84 -8 100 -10 17
-3 53 -7 80 -10 28 -3 68 -7 90 -10 22 -3 60 -7 85 -9 107 -12 157 -17 185
-22 17 -3 50 -7 75 -9 61 -6 147 -15 195 -21 22 -3 60 -7 85 -9 25 -3 63 -7
85 -10 22 -3 60 -8 85 -10 25 -2 59 -6 75 -8 17 -3 62 -8 100 -12 39 -4 72 -8
74 -11 2 -2 12 1 22 7 17 9 18 12 5 37 -8 15 -59 89 -113 164 -54 76 -131 185
-171 242 -49 70 -83 109 -105 119 -117 55 -221 103 -277 129 -197 90 -352 162
-520 240 -47 22 -114 54 -150 70 -131 60 -476 220 -525 243 -85 39 -194 90
-323 149 l-123 57 -180 -3 c-99 -2 -182 -4 -183 -6z"/>
<path d="M929 3547 c-4 -30 -3 -36 20 -162 6 -33 13 -76 16 -95 3 -19 10 -60
15 -90 5 -30 12 -71 15 -90 3 -19 8 -46 10 -60 12 -60 15 -78 21 -120 3 -25 8
-54 12 -65 7 -23 9 -34 17 -90 5 -37 18 -115 29 -175 2 -14 12 -68 20 -120 18
-104 22 -130 31 -175 3 -16 8 -48 11 -70 3 -22 9 -60 14 -85 9 -40 18 -97 35
-200 3 -19 8 -42 10 -50 3 -8 7 -32 10 -52 3 -21 7 -55 10 -75 3 -21 7 -45 10
-53 2 -8 6 -28 9 -45 3 -16 17 -100 31 -185 14 -85 28 -168 31 -185 2 -16 9
-52 14 -80 6 -27 12 -63 15 -80 2 -16 13 -82 24 -145 32 -182 62 -353 66 -380
2 -14 7 -43 10 -64 9 -64 36 -107 111 -182 88 -86 181 -153 294 -210 79 -39
190 -79 250 -90 20 -4 49 -10 90 -19 10 -2 146 -25 180 -30 141 -20 514 -27
645 -11 156 19 369 75 484 128 130 61 252 147 345 242 71 74 92 119 101 211 6
74 14 144 20 185 2 14 7 57 11 95 3 39 7 77 9 85 2 8 6 47 10 85 4 39 9 78 11
89 2 10 6 44 9 75 7 65 13 113 20 159 18 131 26 196 31 238 2 27 7 60 9 74 2
14 7 48 10 75 4 28 8 61 10 75 2 14 6 43 9 65 10 76 57 400 61 425 2 14 7 43
10 65 6 38 47 289 60 365 3 19 8 42 10 50 2 8 7 35 10 60 6 43 58 299 90 445
8 38 22 92 31 118 28 85 27 85 -286 -4 -521 -147 -529 -150 -534 -168 -3 -9
-7 -36 -10 -61 -8 -66 -15 -122 -31 -240 -8 -58 -17 -131 -20 -164 -3 -32 -7
-61 -9 -65 -2 -3 -7 -40 -11 -81 -4 -41 -9 -84 -11 -95 -2 -11 -6 -47 -9 -80
-3 -33 -8 -67 -10 -75 -2 -8 -7 -40 -10 -70 -3 -30 -8 -66 -10 -80 -2 -14 -7
-47 -10 -75 -7 -69 -16 -134 -22 -170 -3 -16 -6 -46 -8 -65 -3 -46 -15 -141
-20 -160 -2 -8 -7 -44 -10 -80 -3 -36 -10 -92 -15 -125 -5 -33 -12 -85 -15
-115 -3 -30 -8 -66 -10 -80 -2 -14 -9 -65 -15 -115 -5 -49 -12 -101 -14 -115
-8 -47 -18 -128 -31 -250 -11 -105 -20 -145 -30 -140 -11 5 -11 8 -1 85 10 76
15 116 21 165 3 25 7 61 10 80 3 19 7 55 10 80 3 25 7 61 10 80 11 85 16 127
20 150 2 14 6 52 10 85 3 33 7 67 10 75 2 8 7 42 10 75 3 33 10 87 15 120 5
33 12 87 15 120 4 33 8 71 10 85 2 14 7 48 10 75 3 28 8 63 11 80 3 16 7 52 9
80 3 27 8 68 11 90 4 22 7 51 9 65 1 14 5 43 8 65 10 60 17 114 22 170 5 48 9
81 19 155 3 19 8 60 11 90 6 52 9 74 20 138 2 15 7 52 10 82 3 30 8 71 10 90
18 138 20 135 -65 145 -30 3 -66 8 -80 10 -14 2 -54 6 -90 9 -36 4 -74 8 -85
10 -11 2 -51 7 -90 11 -38 3 -83 8 -100 10 -49 6 -114 14 -215 25 -172 19
-185 20 -220 25 -19 2 -60 7 -90 10 -30 3 -71 8 -90 10 -19 3 -60 8 -90 10
-31 3 -71 8 -90 10 -19 3 -62 7 -95 11 -33 3 -71 7 -84 9 -14 3 -54 7 -90 10
-36 4 -77 8 -91 10 -29 5 -95 13 -165 20 -27 3 -69 7 -92 10 -24 3 -64 7 -90
10 -27 3 -61 8 -78 10 -16 3 -55 7 -86 10 -31 3 -72 7 -90 9 -19 3 -61 8 -94
11 -33 4 -76 9 -95 11 -88 12 -120 12 -121 1z"/>
</g>
</svg>
