<svg xmlns="http://www.w3.org/2000/svg" width="166.265" height="78.027" viewBox="0 0 166.265 78.027">
    <g id="Group_2" data-name="Group 2" transform="translate(-252.967 -1333.983)">
    <path id="Path_1" data-name="Path 1" d="M-541.8,1095.409c-38.709,0-64.33-29.367-65.5-30.728l7.592-6.509c.277.322,28.18,32.128,67.38,26.563,39.3-5.577,56.3-43.838,56.469-44.224l9.176,3.976c-.774,1.785-19.46,43.793-64.239,50.148A77.366,77.366,0,0,1-541.8,1095.409Z" transform="translate(860.265 316.601)" fill="currentColor"/>
    <path id="Path_2" data-name="Path 2" d="M-360.762,1033.825a26.906,26.906,0,0,0-12.973-20.328c-11.814-7.219-26.794,2.778-26.943,2.879l-5.654-8.248c.826-.568,20.43-13.786,37.812-3.164a36.983,36.983,0,0,1,17.752,28.5Z" transform="translate(770 333.136)" fill="currentColor"/>
    </g>
</svg>